<svg width="17" height="16" viewBox="0 0 17 16" fill="none" xmlns="http://www.w3.org/2000/svg">
<path d="M2.11758 16C1.5568 16 1.0769 15.8043 0.677898 15.413C0.278212 15.021 0.0783691 14.55 0.0783691 14C0.0783691 13.45 0.278212 12.979 0.677898 12.587C1.0769 12.1957 1.5568 12 2.11758 12C2.67837 12 3.15826 12.1957 3.55727 12.587C3.95696 12.979 4.1568 13.45 4.1568 14C4.1568 14.55 3.95696 15.021 3.55727 15.413C3.15826 15.8043 2.67837 16 2.11758 16ZM8.23523 16C7.67445 16 7.19455 15.8043 6.79555 15.413C6.39586 15.021 6.19602 14.55 6.19602 14C6.19602 13.45 6.39586 12.979 6.79555 12.587C7.19455 12.1957 7.67445 12 8.23523 12C8.79602 12 9.27625 12.1957 9.67594 12.587C10.0749 12.979 10.2744 13.45 10.2744 14C10.2744 14.55 10.0749 15.021 9.67594 15.413C9.27625 15.8043 8.79602 16 8.23523 16ZM14.3529 16C13.7921 16 13.3119 15.8043 12.9122 15.413C12.5132 15.021 12.3137 14.55 12.3137 14C12.3137 13.45 12.5132 12.979 12.9122 12.587C13.3119 12.1957 13.7921 12 14.3529 12C14.9137 12 15.3939 12.1957 15.7936 12.587C16.1926 12.979 16.3921 13.45 16.3921 14C16.3921 14.55 16.1926 15.021 15.7936 15.413C15.3939 15.8043 14.9137 16 14.3529 16ZM2.11758 10C1.5568 10 1.0769 9.804 0.677898 9.412C0.278212 9.02067 0.0783691 8.55 0.0783691 8C0.0783691 7.45 0.278212 6.979 0.677898 6.587C1.0769 6.19567 1.5568 6 2.11758 6C2.67837 6 3.15826 6.19567 3.55727 6.587C3.95696 6.979 4.1568 7.45 4.1568 8C4.1568 8.55 3.95696 9.02067 3.55727 9.412C3.15826 9.804 2.67837 10 2.11758 10ZM8.23523 10C7.67445 10 7.19455 9.804 6.79555 9.412C6.39586 9.02067 6.19602 8.55 6.19602 8C6.19602 7.45 6.39586 6.979 6.79555 6.587C7.19455 6.19567 7.67445 6 8.23523 6C8.79602 6 9.27625 6.19567 9.67594 6.587C10.0749 6.979 10.2744 7.45 10.2744 8C10.2744 8.55 10.0749 9.02067 9.67594 9.412C9.27625 9.804 8.79602 10 8.23523 10ZM14.3529 10C13.7921 10 13.3119 9.804 12.9122 9.412C12.5132 9.02067 12.3137 8.55 12.3137 8C12.3137 7.45 12.5132 6.979 12.9122 6.587C13.3119 6.19567 13.7921 6 14.3529 6C14.9137 6 15.3939 6.19567 15.7936 6.587C16.1926 6.979 16.3921 7.45 16.3921 8C16.3921 8.55 16.1926 9.02067 15.7936 9.412C15.3939 9.804 14.9137 10 14.3529 10ZM2.11758 4C1.5568 4 1.0769 3.804 0.677898 3.412C0.278212 3.02067 0.0783691 2.55 0.0783691 2C0.0783691 1.45 0.278212 0.979333 0.677898 0.588C1.0769 0.196 1.5568 0 2.11758 0C2.67837 0 3.15826 0.196 3.55727 0.588C3.95696 0.979333 4.1568 1.45 4.1568 2C4.1568 2.55 3.95696 3.02067 3.55727 3.412C3.15826 3.804 2.67837 4 2.11758 4ZM8.23523 4C7.67445 4 7.19455 3.804 6.79555 3.412C6.39586 3.02067 6.19602 2.55 6.19602 2C6.19602 1.45 6.39586 0.979333 6.79555 0.588C7.19455 0.196 7.67445 0 8.23523 0C8.79602 0 9.27625 0.196 9.67594 0.588C10.0749 0.979333 10.2744 1.45 10.2744 2C10.2744 2.55 10.0749 3.02067 9.67594 3.412C9.27625 3.804 8.79602 4 8.23523 4ZM14.3529 4C13.7921 4 13.3119 3.804 12.9122 3.412C12.5132 3.02067 12.3137 2.55 12.3137 2C12.3137 1.45 12.5132 0.979333 12.9122 0.588C13.3119 0.196 13.7921 0 14.3529 0C14.9137 0 15.3939 0.196 15.7936 0.588C16.1926 0.979333 16.3921 1.45 16.3921 2C16.3921 2.55 16.1926 3.02067 15.7936 3.412C15.3939 3.804 14.9137 4 14.3529 4Z" fill="#3887EA"/>
</svg>
