<svg width="20" height="23" viewBox="0 0 20 23" fill="none" xmlns="http://www.w3.org/2000/svg">
<path d="M10 22.8945C8.61667 22.8945 7.31667 22.6257 6.1 22.0883C4.88333 21.5515 3.825 20.8227 2.925 19.9019C2.025 18.9811 1.31267 17.8983 0.788 16.6536C0.262667 15.4088 0 14.0787 0 12.6635C0 10.7196 0.496 8.9247 1.488 7.27887C2.47933 5.63372 3.825 4.37633 5.525 3.50669C5.54167 3.83067 5.575 4.15875 5.625 4.49092C5.675 4.82377 5.75833 5.21186 5.875 5.65521C4.675 6.40548 3.729 7.39857 3.037 8.63448C2.34567 9.87107 2 11.2141 2 12.6635C2 14.9484 2.775 16.8838 4.325 18.4696C5.875 20.0554 7.76667 20.8483 10 20.8483C12.2333 20.8483 14.125 20.0554 15.675 18.4696C17.225 16.8838 18 14.9484 18 12.6635C18 11.2141 17.654 9.86698 16.962 8.6222C16.2707 7.37743 15.3167 6.3799 14.1 5.62963C14.2167 5.18629 14.3 4.79819 14.35 4.46534C14.4 4.13317 14.4417 3.81362 14.475 3.50669C16.175 4.37633 17.521 5.62963 18.513 7.26659C19.5043 8.90356 20 10.7025 20 12.6635C20 14.0787 19.7373 15.4088 19.212 16.6536C18.6873 17.8983 17.975 18.9811 17.075 19.9019C16.175 20.8227 15.1167 21.5515 13.9 22.0883C12.6833 22.6257 11.3833 22.8945 10 22.8945ZM10 18.8021C8.33333 18.8021 6.91667 18.2053 5.75 17.0116C4.58333 15.818 4 14.3686 4 12.6635C4 11.6745 4.21267 10.7451 4.638 9.8755C5.06267 9.00587 5.66667 8.28117 6.45 7.70141C6.53333 7.95719 6.625 8.25116 6.725 8.58333C6.825 8.91617 6.95833 9.32985 7.125 9.82435C6.75833 10.2165 6.47933 10.6514 6.288 11.1288C6.096 11.6063 6 12.1178 6 12.6635C6 13.7889 6.39167 14.7523 7.175 15.5537C7.95833 16.3552 8.9 16.7559 10 16.7559C11.1 16.7559 12.0417 16.3552 12.825 15.5537C13.6083 14.7523 14 13.7889 14 12.6635C14 12.1178 13.9043 11.6063 13.713 11.1288C13.521 10.6514 13.2417 10.2165 12.875 9.82435C13.0083 9.41511 13.1293 9.03554 13.238 8.68564C13.346 8.33642 13.4417 8.00834 13.525 7.70141C14.3083 8.28117 14.9167 9.00587 15.35 9.8755C15.7833 10.7451 16 11.6745 16 12.6635C16 14.3686 15.4167 15.818 14.25 17.0116C13.0833 18.2053 11.6667 18.8021 10 18.8021ZM10 0.38623C10.7 0.38623 11.2917 0.63348 11.775 1.12798C12.2583 1.62248 12.5 2.22781 12.5 2.94399C12.5 3.50669 12.4293 4.12465 12.288 4.79785C12.146 5.47173 11.8333 6.55042 11.35 8.03392C11.25 8.34085 11.0793 8.59253 10.838 8.78897C10.596 8.98472 10.3167 9.0826 10 9.0826C9.68333 9.0826 9.40433 8.98472 9.163 8.78897C8.921 8.59253 8.75 8.34085 8.65 8.03392C8.16667 6.55042 7.85433 5.47173 7.713 4.79785C7.571 4.12465 7.5 3.50669 7.5 2.94399C7.5 2.22781 7.74167 1.62248 8.225 1.12798C8.70833 0.63348 9.3 0.38623 10 0.38623ZM10 14.7097C9.45 14.7097 8.97933 14.5091 8.588 14.1081C8.196 13.7077 8 13.2262 8 12.6635C8 12.1008 8.196 11.6189 8.588 11.2178C8.97933 10.8174 9.45 10.6173 10 10.6173C10.55 10.6173 11.021 10.8174 11.413 11.2178C11.8043 11.6189 12 12.1008 12 12.6635C12 13.2262 11.8043 13.7077 11.413 14.1081C11.021 14.5091 10.55 14.7097 10 14.7097Z" fill="#3887EA"/>
</svg>
