<svg width="18" height="19" viewBox="0 0 18 19" fill="none" xmlns="http://www.w3.org/2000/svg">
<path d="M9 18.98C6.48333 18.98 4.354 18.5834 2.612 17.7902C0.870667 16.9976 0 16.0301 0 14.8876V4.65662C0 3.53121 0.879333 2.56778 2.638 1.76635C4.396 0.964924 6.51667 0.564209 9 0.564209C11.4833 0.564209 13.6043 0.964924 15.363 1.76635C17.121 2.56778 18 3.53121 18 4.65662V14.8876C18 16.0301 17.129 16.9976 15.387 17.7902C13.6457 18.5834 11.5167 18.98 9 18.98ZM9 6.7284C10.4833 6.7284 11.975 6.51082 13.475 6.07566C14.975 5.64118 15.8167 5.1767 16 4.6822C15.8167 4.1877 14.9793 3.71877 13.488 3.27543C11.996 2.83209 10.5 2.61041 9 2.61041C7.48333 2.61041 5.996 2.82765 4.538 3.26213C3.07933 3.69729 2.23333 4.17064 2 4.6822C2.23333 5.19375 3.07933 5.66267 4.538 6.08896C5.996 6.51525 7.48333 6.7284 9 6.7284ZM9 11.8183C9.7 11.8183 10.375 11.7842 11.025 11.716C11.675 11.6478 12.296 11.5496 12.888 11.4214C13.4793 11.2938 14.0373 11.1363 14.562 10.9487C15.0873 10.7611 15.5667 10.548 16 10.3093V7.23995C15.5667 7.47867 15.0873 7.69182 14.562 7.87939C14.0373 8.06696 13.4793 8.22452 12.888 8.35206C12.296 8.48029 11.675 8.57851 11.025 8.64672C10.375 8.71492 9.7 8.74903 9 8.74903C8.3 8.74903 7.61667 8.71492 6.95 8.64672C6.28333 8.57851 5.654 8.48029 5.062 8.35206C4.47067 8.22452 3.91667 8.06696 3.4 7.87939C2.88333 7.69182 2.41667 7.47867 2 7.23995V10.3093C2.41667 10.548 2.88333 10.7611 3.4 10.9487C3.91667 11.1363 4.47067 11.2938 5.062 11.4214C5.654 11.5496 6.28333 11.6478 6.95 11.716C7.61667 11.7842 8.3 11.8183 9 11.8183ZM9 16.9338C9.76667 16.9338 10.546 16.8742 11.338 16.7548C12.1293 16.6354 12.8583 16.4775 13.525 16.2811C14.1917 16.0854 14.75 15.8637 15.2 15.6161C15.65 15.3692 15.9167 15.1178 16 14.8621V12.3555C15.5667 12.5942 15.0873 12.8073 14.562 12.9949C14.0373 13.1825 13.4793 13.34 12.888 13.4676C12.296 13.5958 11.675 13.694 11.025 13.7622C10.375 13.8304 9.7 13.8645 9 13.8645C8.3 13.8645 7.61667 13.8304 6.95 13.7622C6.28333 13.694 5.654 13.5958 5.062 13.4676C4.47067 13.34 3.91667 13.1825 3.4 12.9949C2.88333 12.8073 2.41667 12.5942 2 12.3555V14.8876C2.08333 15.1434 2.34567 15.3907 2.787 15.6294C3.229 15.8681 3.78333 16.0854 4.45 16.2811C5.11667 16.4775 5.85 16.6354 6.65 16.7548C7.45 16.8742 8.23333 16.9338 9 16.9338Z" fill="#1C1B1F"/>
</svg>
