<svg width="20" height="18" viewBox="0 0 20 18" fill="none" xmlns="http://www.w3.org/2000/svg">
<path d="M11.0589 8.6L13.6079 11.1C13.7948 11.2833 13.8883 11.5167 13.8883 11.8C13.8883 12.0833 13.7948 12.3167 13.6079 12.5C13.421 12.6833 13.1831 12.775 12.8942 12.775C12.6053 12.775 12.3674 12.6833 12.1804 12.5L9.32554 9.7C9.22358 9.6 9.14711 9.48733 9.09613 9.362C9.04515 9.23733 9.01966 9.10833 9.01966 8.975V5C9.01966 4.71667 9.11754 4.479 9.3133 4.287C9.50839 4.09567 9.75037 4 10.0393 4C10.3282 4 10.5705 4.09567 10.7662 4.287C10.9613 4.479 11.0589 4.71667 11.0589 5V8.6ZM10.0393 18C7.98305 18 6.13926 17.404 4.50789 16.212C2.87652 15.0207 1.78044 13.4667 1.21966 11.55C1.13469 11.25 1.1646 10.9667 1.30938 10.7C1.45349 10.4333 1.67848 10.2667 1.98436 10.2C2.27325 10.1333 2.53257 10.1957 2.76232 10.387C2.99139 10.579 3.14841 10.8167 3.23338 11.1C3.67521 12.5667 4.5293 13.75 5.79566 14.65C7.06133 15.55 8.47587 16 10.0393 16C12.0275 16 13.7139 15.3207 15.0986 13.962C16.4839 12.604 17.1765 10.95 17.1765 9C17.1765 7.05 16.4839 5.39567 15.0986 4.037C13.7139 2.679 12.0275 2 10.0393 2C8.86672 2 7.77064 2.26667 6.75103 2.8C5.73142 3.33333 4.87325 4.06667 4.17652 5H5.96083C6.24972 5 6.49205 5.09567 6.68781 5.287C6.8829 5.479 6.98044 5.71667 6.98044 6C6.98044 6.28333 6.8829 6.52067 6.68781 6.712C6.49205 6.904 6.24972 7 5.96083 7H1.8824C1.59351 7 1.35153 6.904 1.15644 6.712C0.960675 6.52067 0.862793 6.28333 0.862793 6V2C0.862793 1.71667 0.960675 1.479 1.15644 1.287C1.35153 1.09567 1.59351 1 1.8824 1C2.17129 1 2.41362 1.09567 2.60938 1.287C2.80447 1.479 2.90201 1.71667 2.90201 2V3.35C3.76868 2.28333 4.82669 1.45833 6.07605 0.875C7.32473 0.291667 8.6458 0 10.0393 0C11.3138 0 12.5077 0.237333 13.6211 0.712C14.7339 1.18733 15.7025 1.829 16.527 2.637C17.3509 3.44567 18.0051 4.39567 18.4898 5.487C18.9737 6.579 19.2157 7.75 19.2157 9C19.2157 10.25 18.9737 11.4207 18.4898 12.512C18.0051 13.604 17.3509 14.554 16.527 15.362C15.7025 16.1707 14.7339 16.8127 13.6211 17.288C12.5077 17.7627 11.3138 18 10.0393 18Z" fill="#3887EA"/>
</svg>
