<svg width="20" height="12" viewBox="0 0 20 12" fill="none" xmlns="http://www.w3.org/2000/svg">
<path d="M17.9687 10.9749L11.6471 6.82489C11.3412 6.62489 11.1883 6.34989 11.1883 5.99989C11.1883 5.64989 11.3412 5.37489 11.6471 5.17489L17.9687 1.02489C18.3085 0.791554 18.6569 0.774887 19.0138 0.974887C19.3706 1.17489 19.5491 1.47489 19.5491 1.87489V10.1249C19.5491 10.5249 19.3706 10.8249 19.0138 11.0249C18.6569 11.2249 18.3085 11.2082 17.9687 10.9749ZM7.77258 10.9749L1.45101 6.82489C1.14513 6.62489 0.992188 6.34989 0.992188 5.99989C0.992188 5.64989 1.14513 5.37489 1.45101 5.17489L7.77258 1.02489C8.11245 0.791554 8.46082 0.774887 8.81768 0.974887C9.17454 1.17489 9.35297 1.47489 9.35297 1.87489V10.1249C9.35297 10.5249 9.17454 10.8249 8.81768 11.0249C8.46082 11.2249 8.11245 11.2082 7.77258 10.9749ZM7.31376 8.24989V3.74989L3.84709 5.99989L7.31376 8.24989ZM17.5098 8.24989V3.74989L14.0432 5.99989L17.5098 8.24989Z" fill="#3887EA"/>
</svg>
