<svg width="20" height="12" viewBox="0 0 20 12" fill="none" xmlns="http://www.w3.org/2000/svg">
<path d="M2.20783 10.9749C1.86796 11.2082 1.5196 11.2249 1.16274 11.0249C0.805873 10.8249 0.627441 10.5249 0.627441 10.1249V1.87489C0.627441 1.47489 0.805873 1.17489 1.16274 0.974887C1.5196 0.774887 1.86796 0.791554 2.20783 1.02489L8.5294 5.17489C8.83529 5.37489 8.98823 5.64989 8.98823 5.99989C8.98823 6.34989 8.83529 6.62489 8.5294 6.82489L2.20783 10.9749ZM12.4039 10.9749C12.064 11.2082 11.7157 11.2249 11.3588 11.0249C11.002 10.8249 10.8235 10.5249 10.8235 10.1249V1.87489C10.8235 1.47489 11.002 1.17489 11.3588 0.974887C11.7157 0.774887 12.064 0.791554 12.4039 1.02489L18.7255 5.17489C19.0314 5.37489 19.1843 5.64989 19.1843 5.99989C19.1843 6.34989 19.0314 6.62489 18.7255 6.82489L12.4039 10.9749ZM2.66666 8.24989L6.13332 5.99989L2.66666 3.74989V8.24989ZM12.8627 8.24989L16.3294 5.99989L12.8627 3.74989V8.24989Z" fill="#3887EA"/>
</svg>
