<svg width="16" height="19" viewBox="0 0 16 19" fill="none" xmlns="http://www.w3.org/2000/svg">
<path d="M2 16.7162H5V10.5776H11V16.7162H14V7.50832L8 2.90436L2 7.50832V16.7162ZM2 18.7624C1.45 18.7624 0.979333 18.5623 0.588 18.1619C0.196 17.7608 0 17.2789 0 16.7162V7.50832C0 7.18434 0.0709998 6.87741 0.213 6.58753C0.354333 6.29765 0.55 6.05892 0.8 5.87136L6.8 1.2674C6.98333 1.13098 7.175 1.02867 7.375 0.960464C7.575 0.892258 7.78333 0.858154 8 0.858154C8.21667 0.858154 8.425 0.892258 8.625 0.960464C8.825 1.02867 9.01667 1.13098 9.2 1.2674L15.2 5.87136C15.45 6.05892 15.646 6.29765 15.788 6.58753C15.9293 6.87741 16 7.18434 16 7.50832V16.7162C16 17.2789 15.8043 17.7608 15.413 18.1619C15.021 18.5623 14.55 18.7624 14 18.7624H9V12.6238H7V18.7624H2Z" fill="#3887EA"/>
</svg>
