<svg width="14" height="14" viewBox="0 0 14 14" fill="none" xmlns="http://www.w3.org/2000/svg">
<path d="M7 14C5.06667 14 3.41667 13.3167 2.05 11.95C0.683334 10.5833 0 8.93333 0 7C0 5.06667 0.683334 3.41667 2.05 2.05C3.41667 0.683334 5.06667 0 7 0C8.93333 0 10.5833 0.683334 11.95 2.05C13.3167 3.41667 14 5.06667 14 7C14 8.93333 13.3167 10.5833 11.95 11.95C10.5833 13.3167 8.93333 14 7 14ZM7 12C8.38333 12 9.56267 11.5123 10.538 10.537C11.5127 9.56233 12 8.38333 12 7C12 5.61667 11.5127 4.43733 10.538 3.462C9.56267 2.48733 8.38333 2 7 2C5.61667 2 4.43767 2.48733 3.463 3.462C2.48767 4.43733 2 5.61667 2 7C2 8.38333 2.48767 9.56233 3.463 10.537C4.43767 11.5123 5.61667 12 7 12Z" fill="#1C1B1F"/>
</svg>
