<svg width="22" height="22" viewBox="0 0 22 22" fill="none" xmlns="http://www.w3.org/2000/svg">
<path d="M10.1174 10H12.1567V3C12.1567 2.71667 12.0591 2.479 11.864 2.287C11.6683 2.09567 11.4259 2 11.137 2C10.8482 2 10.6062 2.09567 10.4111 2.287C10.2153 2.479 10.1174 2.71667 10.1174 3V10ZM3.99979 14H18.2743V12H3.99979V14ZM2.52136 20H5.0194V18C5.0194 17.7167 5.11694 17.4793 5.31203 17.288C5.50779 17.096 5.75012 17 6.03901 17C6.3279 17 6.57022 17.096 6.76599 17.288C6.96107 17.4793 7.05861 17.7167 7.05861 18V20H10.1174V18C10.1174 17.7167 10.2153 17.4793 10.4111 17.288C10.6062 17.096 10.8482 17 11.137 17C11.4259 17 11.6683 17.096 11.864 17.288C12.0591 17.4793 12.1567 17.7167 12.1567 18V20H15.2155V18C15.2155 17.7167 15.3134 17.4793 15.5091 17.288C15.7042 17.096 15.9462 17 16.2351 17C16.524 17 16.766 17.096 16.961 17.288C17.1568 17.4793 17.2547 17.7167 17.2547 18V20H19.7527L18.7331 16H3.54097L2.52136 20ZM19.7527 22H2.52136C1.85861 22 1.32332 21.7417 0.915477 21.225C0.507633 20.7083 0.388679 20.1333 0.558614 19.5L1.96057 14V12C1.96057 11.45 2.16008 10.979 2.55908 10.587C2.95877 10.1957 3.43901 10 3.99979 10H8.07822V3C8.07822 2.16667 8.37561 1.45833 8.97038 0.875C9.56515 0.291667 10.2874 0 11.137 0C11.9867 0 12.7089 0.291667 13.3037 0.875C13.8985 1.45833 14.1959 2.16667 14.1959 3V10H18.2743C18.8351 10 19.3153 10.1957 19.715 10.587C20.114 10.979 20.3135 11.45 20.3135 12V14L21.7155 19.5C21.9364 20.1333 21.8389 20.7083 21.4228 21.225C21.0062 21.7417 20.4495 22 19.7527 22Z" fill="#3887EA"/>
</svg>
