<svg width="20" height="22" viewBox="0 0 20 22" fill="none" xmlns="http://www.w3.org/2000/svg">
<path d="M11.8753 21.1583H8.12534C7.87534 21.1583 7.65867 21.0731 7.47534 20.9026C7.292 20.732 7.18367 20.5189 7.15034 20.2631L6.85034 17.8844C6.63367 17.7991 6.42967 17.6968 6.23834 17.5775C6.04634 17.4581 5.85867 17.3302 5.67534 17.1938L3.50034 18.1146C3.267 18.1999 3.03367 18.2084 2.80034 18.1402C2.567 18.072 2.38367 17.927 2.25034 17.7054L0.400337 14.4059C0.267004 14.1842 0.225337 13.9455 0.275337 13.6897C0.325337 13.4339 0.450337 13.2293 0.650337 13.0758L2.52534 11.6179C2.50867 11.4985 2.50034 11.3833 2.50034 11.2721V10.5815C2.50034 10.471 2.50867 10.3561 2.52534 10.2367L0.650337 8.7788C0.450337 8.62533 0.325337 8.42071 0.275337 8.16494C0.225337 7.90916 0.267004 7.67044 0.400337 7.44876L2.25034 4.14926C2.367 3.91054 2.546 3.76116 2.78734 3.70114C3.02934 3.6418 3.267 3.65476 3.50034 3.74002L5.67534 4.66081C5.85867 4.5244 6.05034 4.39651 6.25034 4.27715C6.45034 4.15779 6.65034 4.05547 6.85034 3.97022L7.15034 1.5915C7.18367 1.33573 7.292 1.12258 7.47534 0.952065C7.65867 0.781548 7.87534 0.696289 8.12534 0.696289H11.8753C12.1253 0.696289 12.342 0.781548 12.5253 0.952065C12.7087 1.12258 12.817 1.33573 12.8503 1.5915L13.1503 3.97022C13.367 4.05547 13.5713 4.15779 13.7633 4.27715C13.9547 4.39651 14.142 4.5244 14.3253 4.66081L16.5003 3.74002C16.7337 3.65476 16.967 3.64623 17.2003 3.71444C17.4337 3.78265 17.617 3.92759 17.7503 4.14926L19.6003 7.44876C19.7337 7.67044 19.7753 7.90916 19.7253 8.16494C19.6753 8.42071 19.5503 8.62533 19.3503 8.7788L17.4753 10.2367C17.492 10.3561 17.5003 10.471 17.5003 10.5815V11.2721C17.5003 11.3833 17.4837 11.4985 17.4503 11.6179L19.3253 13.0758C19.5253 13.2293 19.6503 13.4339 19.7003 13.6897C19.7503 13.9455 19.7087 14.1842 19.5753 14.4059L17.7253 17.6798C17.592 17.9015 17.4047 18.0508 17.1633 18.1279C16.9213 18.2043 16.6837 18.1999 16.4503 18.1146L14.3253 17.1938C14.142 17.3302 13.9503 17.4581 13.7503 17.5775C13.5503 17.6968 13.3503 17.7991 13.1503 17.8844L12.8503 20.2631C12.817 20.5189 12.7087 20.732 12.5253 20.9026C12.342 21.0731 12.1253 21.1583 11.8753 21.1583ZM10.0503 14.5082C11.017 14.5082 11.842 14.1586 12.5253 13.4595C13.2087 12.7604 13.5503 11.9163 13.5503 10.9273C13.5503 9.93831 13.2087 9.09425 12.5253 8.39513C11.842 7.69601 11.017 7.34645 10.0503 7.34645C9.067 7.34645 8.23767 7.69601 7.56234 8.39513C6.88767 9.09425 6.55034 9.93831 6.55034 10.9273C6.55034 11.9163 6.88767 12.7604 7.56234 13.4595C8.23767 14.1586 9.067 14.5082 10.0503 14.5082ZM10.0503 12.462C9.63367 12.462 9.27967 12.3126 8.98834 12.0138C8.69634 11.7158 8.55034 11.3536 8.55034 10.9273C8.55034 10.501 8.69634 10.1388 8.98834 9.84078C9.27967 9.54203 9.63367 9.39266 10.0503 9.39266C10.467 9.39266 10.8213 9.54203 11.1133 9.84078C11.4047 10.1388 11.5503 10.501 11.5503 10.9273C11.5503 11.3536 11.4047 11.7158 11.1133 12.0138C10.8213 12.3126 10.467 12.462 10.0503 12.462ZM9.00034 19.1121H10.9753L11.3253 16.4009C11.842 16.2645 12.3213 16.064 12.7633 15.7993C13.2047 15.5354 13.6087 15.2158 13.9753 14.8407L16.4503 15.8894L17.4253 14.1501L15.2753 12.4875C15.3587 12.2488 15.417 11.9971 15.4503 11.7325C15.4837 11.4685 15.5003 11.2001 15.5003 10.9273C15.5003 10.6545 15.4837 10.3857 15.4503 10.1211C15.417 9.85715 15.3587 9.60581 15.2753 9.36708L17.4253 7.70454L16.4503 5.96527L13.9753 7.03952C13.6087 6.64733 13.2047 6.31892 12.7633 6.05428C12.3213 5.79032 11.842 5.59013 11.3253 5.45371L11.0003 2.74249H9.02534L8.67534 5.45371C8.15867 5.59013 7.67967 5.79032 7.23834 6.05428C6.79634 6.31892 6.392 6.63881 6.02534 7.01395L3.55034 5.96527L2.57534 7.70454L4.72534 9.3415C4.642 9.59728 4.58367 9.85305 4.55034 10.1088C4.517 10.3646 4.50034 10.6374 4.50034 10.9273C4.50034 11.2001 4.517 11.4644 4.55034 11.7202C4.58367 11.976 4.642 12.2318 4.72534 12.4875L2.57534 14.1501L3.55034 15.8894L6.02534 14.8151C6.392 15.2073 6.79634 15.5354 7.23834 15.7993C7.67967 16.064 8.15867 16.2645 8.67534 16.4009L9.00034 19.1121Z" fill="#1C1B1F"/>
</svg>
