<svg width="21" height="16" viewBox="0 0 21 16" fill="none" xmlns="http://www.w3.org/2000/svg">
<path d="M9.18453 11.5C9.59238 11.9 10.1192 12.0957 10.7649 12.087C11.4107 12.079 11.8865 11.85 12.1924 11.4L16.5002 5.075C16.6532 4.84167 16.6317 4.62933 16.436 4.438C16.2409 4.246 16.0244 4.225 15.7865 4.375L9.33747 8.6C8.87865 8.9 8.63666 9.35833 8.61151 9.975C8.58568 10.5917 8.77669 11.1 9.18453 11.5ZM3.72963 16C3.37277 16 3.0329 15.9167 2.71002 15.75C2.38715 15.5833 2.13225 15.35 1.94532 15.05C1.50349 14.3 1.16362 13.5043 0.92571 12.663C0.687802 11.821 0.568848 10.9333 0.568848 10C0.568848 8.61667 0.836665 7.32067 1.3723 6.112C1.90725 4.904 2.63797 3.84567 3.56446 2.937C4.49026 2.029 5.57342 1.31233 6.81395 0.787C8.05447 0.262334 9.37146 0 10.7649 0C11.5296 0 12.2688 0.079 12.9826 0.237C13.6963 0.395667 14.3845 0.633333 15.0473 0.95C15.4041 1.13333 15.6121 1.38333 15.6713 1.7C15.7311 2.01667 15.642 2.31667 15.4041 2.6C15.2682 2.75 15.0813 2.84167 14.8434 2.875C14.6054 2.90833 14.393 2.88333 14.2061 2.8C13.6623 2.53333 13.1015 2.33333 12.5237 2.2C11.946 2.06667 11.3597 2 10.7649 2C8.5048 2 6.58045 2.779 4.99191 4.337C3.40268 5.89567 2.60806 7.78333 2.60806 10C2.60806 10.7 2.70561 11.3917 2.90069 12.075C3.09646 12.7583 3.37277 13.4 3.72963 14H17.8002C18.1911 13.3667 18.4759 12.7083 18.6547 12.025C18.8327 11.3417 18.9218 10.6333 18.9218 9.9C18.9218 9.31667 18.8497 8.746 18.7056 8.188C18.5608 7.62933 18.3525 7.09167 18.0806 6.575C17.9617 6.35833 17.9277 6.13333 17.9787 5.9C18.0296 5.66667 18.1486 5.475 18.3355 5.325C18.6074 5.09167 18.9048 5.025 19.2277 5.125C19.5505 5.225 19.7885 5.44167 19.9414 5.775C20.2473 6.40833 20.4852 7.06267 20.6551 7.738C20.8251 8.41267 20.927 9.11667 20.961 9.85C20.961 10.8 20.8465 11.7083 20.6174 12.575C20.3876 13.4417 20.0434 14.2667 19.5845 15.05C19.3976 15.35 19.1427 15.5833 18.8198 15.75C18.497 15.9167 18.1571 16 17.8002 16H3.72963Z" fill="#3887EA"/>
</svg>
